<svg width="145" height="25" viewBox="0 0 145 25" fill="none" xmlns="http://www.w3.org/2000/svg">
<path d="M46.0196 19V6.327H43.3026V11.305H37.3176V6.327H34.6196V19H37.3176V13.68H43.3026V19H46.0196ZM52.8744 19.228C55.9144 19.228 57.7384 17.024 57.7384 14.402C57.7384 11.799 55.9144 9.595 52.8744 9.595C49.8534 9.595 48.0294 11.799 48.0294 14.402C48.0294 17.024 49.8534 19.228 52.8744 19.228ZM52.8744 17.081C51.3734 17.081 50.5374 15.846 50.5374 14.402C50.5374 12.977 51.3734 11.742 52.8744 11.742C54.3754 11.742 55.2304 12.977 55.2304 14.402C55.2304 15.846 54.3754 17.081 52.8744 17.081ZM73.4999 19V12.369C73.4999 10.488 72.4929 9.595 70.8019 9.595C69.3959 9.595 68.1799 10.431 67.6479 11.267C67.3059 10.222 66.4509 9.595 65.1019 9.595C63.6959 9.595 62.4799 10.469 62.0999 11.02V9.823H59.6869V19H62.0999V12.825C62.4609 12.312 63.1639 11.742 63.9999 11.742C64.9879 11.742 65.3679 12.35 65.3679 13.205V19H67.7999V12.806C68.1419 12.312 68.8449 11.742 69.6999 11.742C70.6879 11.742 71.0679 12.35 71.0679 13.205V19H73.4999ZM75.4359 14.402C75.4359 17.347 77.5449 19.228 80.3379 19.228C81.7629 19.228 83.1879 18.81 84.1189 17.955L83.0549 16.397C82.4659 16.967 81.4589 17.309 80.6039 17.309C79.0459 17.309 78.1149 16.34 77.9629 15.181H84.7839V14.649C84.7839 11.647 82.9219 9.595 80.1859 9.595C77.3929 9.595 75.4359 11.742 75.4359 14.402ZM80.1859 11.514C81.7819 11.514 82.3899 12.673 82.4469 13.547H77.9249C78.0389 12.635 78.6849 11.514 80.1859 11.514ZM105.499 19V6.327H101.699L98.6209 14.231L95.5429 6.327H91.7619V19H94.4599V9.88L98.0319 19H99.2099L102.782 9.88V19H105.499ZM116.04 19V13.072C116.04 10.431 114.121 9.595 112.031 9.595C110.587 9.595 109.143 10.051 108.022 11.039L108.934 12.654C109.713 11.932 110.625 11.571 111.613 11.571C112.829 11.571 113.627 12.179 113.627 13.11V14.383C113.019 13.642 111.936 13.262 110.72 13.262C109.257 13.262 107.528 14.041 107.528 16.188C107.528 18.24 109.257 19.228 110.72 19.228C111.917 19.228 113 18.791 113.627 18.05V19H116.04ZM113.627 16.796C113.228 17.328 112.468 17.594 111.689 17.594C110.739 17.594 109.96 17.1 109.96 16.245C109.96 15.371 110.739 14.858 111.689 14.858C112.468 14.858 113.228 15.124 113.627 15.656V16.796ZM121.67 19.228C122.677 19.228 123.323 18.962 123.684 18.639L123.171 16.815C123.038 16.948 122.696 17.081 122.335 17.081C121.803 17.081 121.499 16.644 121.499 16.074V11.932H123.361V9.823H121.499V7.315H119.067V9.823H117.547V11.932H119.067V16.72C119.067 18.354 119.979 19.228 121.67 19.228ZM124.581 14.402C124.581 17.233 126.614 19.228 129.445 19.228C131.326 19.228 132.466 18.411 133.074 17.556L131.497 16.093C131.06 16.701 130.395 17.081 129.559 17.081C128.096 17.081 127.07 15.998 127.07 14.402C127.07 12.806 128.096 11.742 129.559 11.742C130.395 11.742 131.06 12.103 131.497 12.73L133.074 11.267C132.466 10.412 131.326 9.595 129.445 9.595C126.614 9.595 124.581 11.59 124.581 14.402ZM143.436 19V12.483C143.436 10.697 142.467 9.595 140.453 9.595C138.952 9.595 137.812 10.317 137.223 11.02V6.327H134.81V19H137.223V12.825C137.641 12.274 138.382 11.742 139.313 11.742C140.358 11.742 141.023 12.141 141.023 13.414V19H143.436Z" fill="#0059DA"/>
<path fill-rule="evenodd" clip-rule="evenodd" d="M11.2019 22H9.83549L8.46905 22H4.3697C3.61815 22 3.00325 21.4055 3.00325 20.679V11.4326H0.680289C0.0517227 11.4326 -0.235231 10.6797 0.229361 10.2834L11.6529 0.336835C12.1721 -0.112278 12.9647 -0.112278 13.4839 0.336835L24.9074 10.2834C25.3857 10.6797 25.0851 11.4326 24.4565 11.4326H22.1335V20.679C22.1335 21.4055 21.5186 22 20.7671 22H16.6677H15.3013L13.9348 22H11.2019ZM7.23056 14.7805C8.58352 20.012 16.0126 20.012 17.3655 14.7805L15.4292 14.2797C14.5932 17.5123 10.0028 17.5123 9.16685 14.2797L7.23056 14.7805Z" fill="#0059DA"/>
</svg>
