<svg width="605" height="131" viewBox="0 0 605 131" fill="none" xmlns="http://www.w3.org/2000/svg">
<path d="M42.7584 116.378C44.6549 122.204 48.461 127.316 53.6251 131L25.8524 131C21.406 131 17.7681 127.46 17.7681 123.134V68.0759H4.02478C0.306006 68.0759 -1.3917 63.5926 1.35697 61.2329L68.9417 2.0057C72.0137 -0.668568 76.7026 -0.668568 79.7746 2.0057L147.359 61.2329C150.189 63.5926 148.41 68.0759 144.692 68.0759H130.948V123.134C130.948 127.46 127.31 131 122.864 131H93.5834C101.658 125.388 106.493 116.402 106.493 106.74C106.493 85.8426 90.7779 71.9111 76.8019 65.5259C76.4292 65.4098 76.0565 65.7 76.0565 66.1063C77.92 77.3676 75.4354 89.6157 60.8383 94.3176H60.5898C58.0431 91.0669 57.4219 85.6685 57.2356 83.5207C57.2356 83.1143 56.7386 82.8822 56.3659 83.1143C50.466 86.4583 45.9256 91.5433 43.4616 97.5666C40.9976 103.59 40.7502 110.209 42.7584 116.378Z" fill="#0059DA"/>
<path d="M219.766 81.6845V113.136H203.803V37.6744H256.861V51.4771H219.766V67.8819H256.074V81.6845H219.766Z" fill="#0059DA"/>
<path d="M284.246 41.8605C284.246 46.6122 280.424 50.4589 275.703 50.4589C271.094 50.4589 267.16 46.6122 267.16 41.8605C267.16 37.1088 271.094 33.2621 275.703 33.2621C280.424 33.2621 284.246 37.1088 284.246 41.8605Z" fill="#0059DA"/>
<path d="M282.897 58.4916V113.136H268.621V58.4916H282.897Z" fill="#0059DA"/>
<path d="M312.266 77.0459V113.136H297.99V58.4916H312.266V65.9586C316.087 61.0937 322.832 57.2471 329.577 57.2471V71.276C328.565 71.0497 327.216 70.9366 325.642 70.9366C320.921 70.9366 314.626 73.5387 312.266 77.0459Z" fill="#0059DA"/>
<path fill-rule="evenodd" clip-rule="evenodd" d="M364.95 114.494C348.426 114.494 335.949 103.294 335.949 85.7574C335.949 69.9183 347.527 57.1339 364.051 57.1339C380.238 57.1339 391.254 69.3527 391.254 87.2282V90.396H350.899C351.798 97.2974 357.306 103.067 366.524 103.067C371.582 103.067 377.54 101.031 381.025 97.6368L387.32 106.914C381.812 112.005 373.381 114.494 364.95 114.494ZM377.428 80.6663C377.09 75.462 373.493 68.5607 364.051 68.5607C355.171 68.5607 351.349 75.2358 350.674 80.6663H377.428Z" fill="#0059DA"/>
<path d="M422.062 114.494C412.619 114.494 403.514 111.326 397.781 106.009L403.964 95.9397C407.898 99.6732 415.992 103.407 422.736 103.407C428.919 103.407 431.841 101.257 431.841 97.863C431.841 94.0164 427.12 92.6588 420.938 91.4143L420.787 91.385C411.479 89.5794 399.58 87.2714 399.58 74.3307C399.58 65.1666 407.561 57.1339 421.837 57.1339C431.054 57.1339 438.361 60.3017 443.644 64.6009L438.024 74.4438C434.764 70.9366 428.581 68.1082 421.949 68.1082C416.778 68.1082 413.406 70.0315 413.406 73.1993C413.406 76.5934 417.678 77.8379 423.748 79.0824C433.078 80.8926 445.555 83.3816 445.555 96.9579C445.555 107.027 437.125 114.494 422.062 114.494Z" fill="#0059DA"/>
<path d="M472.634 41.8605C472.634 46.6122 468.812 50.4589 464.091 50.4589C459.482 50.4589 455.548 46.6122 455.548 41.8605C455.548 37.1088 459.482 33.2621 464.091 33.2621C468.812 33.2621 472.634 37.1088 472.634 41.8605Z" fill="#0059DA"/>
<path d="M471.285 58.4916V113.136H457.009V58.4916H471.285Z" fill="#0059DA"/>
<path fill-rule="evenodd" clip-rule="evenodd" d="M538.086 37.6744V113.136H523.698V106.235C519.426 111.553 513.468 114.494 506.949 114.494C493.235 114.494 482.893 104.086 482.893 85.8706C482.893 67.995 493.122 57.1339 506.949 57.1339C513.356 57.1339 519.426 59.9623 523.698 65.506V37.6744H538.086ZM511.333 101.71C516.166 101.71 521.225 99.1075 523.698 95.4872V76.1408C521.225 72.5205 516.166 69.9183 511.333 69.9183C503.239 69.9183 497.619 76.3671 497.619 85.8706C497.619 95.2609 503.239 101.71 511.333 101.71Z" fill="#0059DA"/>
<path fill-rule="evenodd" clip-rule="evenodd" d="M578.696 114.494C562.172 114.494 549.695 103.294 549.695 85.7574C549.695 69.9183 561.273 57.1339 577.797 57.1339C593.984 57.1339 605 69.3527 605 87.2282V90.396H564.645C565.544 97.2974 571.052 103.067 580.27 103.067C585.328 103.067 591.286 101.031 594.771 97.6368L601.066 106.914C595.558 112.005 587.127 114.494 578.696 114.494ZM591.174 80.6663C590.836 75.462 587.239 68.5607 577.797 68.5607C568.917 68.5607 565.095 75.2358 564.42 80.6663H591.174Z" fill="#0059DA"/>
</svg>
